<?xml version="1.0" encoding="UTF-8"?>
<!-- Generator: Adobe Illustrator 26.2.1, SVG Export Plug-In . SVG Version: 6.00 Build 0)  -->
<svg version="1.1" id="Layer_1" xmlns="http://www.w3.org/2000/svg" xmlns:xlink="http://www.w3.org/1999/xlink" x="0px" y="0px" viewBox="0 0 753.38 322.54" style="enable-background:new 0 0 753.38 322.54;" xml:space="preserve">
<style type="text/css">
	.st0{fill:#DB4B58;}
	.st1{fill:#E77C44;}
	.st2{fill:#F3BA46;}
	.st3{fill:#65D2A7;}
	.st4{fill:#9C44BD;}
	.st5{fill:#50ADEB;}
	.st6{fill:url(#XMLID_00000075841900918521035300000016611159166423484083_);}
	.st7{fill:url(#XMLID_00000167362860818640018350000012448817734689459376_);}
	.st8{fill:#FFFFFF;}
	.st9{fill:url(#XMLID_00000161593935938899364090000005214940090374156474_);}
	.st10{fill:url(#XMLID_00000174573612740440517510000009956978703881610407_);}
</style>
<path class="st0" d="M150.23,136.82l71.3,45.16c3.86-6.1,6.99-12.79,9.24-20c2.25-7.21,3.48-14.5,3.78-21.7  c0.31-7.46-0.38-14.83-1.98-21.94c-1.63-7.22-4.19-14.17-7.6-20.68L150.23,136.82L150.23,136.82L150.23,136.82z"/>
<path class="st1" d="M150.2,136.84L150.2,136.84l85.14-44.61c-3.88-7.41-8.73-14.32-14.44-20.53c-5.62-6.12-12.08-11.54-19.27-16.08  c-6.94-4.39-14.56-7.96-22.78-10.53c-8.21-2.57-16.51-3.97-24.72-4.31L150.2,136.84z"/>
<path class="st2" d="M150.28,136.87L150.28,136.87L150.28,136.87l4.5-109.83c-9.71-0.4-19.31,0.49-28.58,2.58  c-9.4,2.12-18.45,5.46-26.93,9.9S82.9,49.51,75.81,56.03c-6.99,6.43-13.19,13.81-18.39,22.03L150.28,136.87z"/>
<path class="st3" d="M26.82,131.81c-0.45,10.92,0.55,21.71,2.9,32.13c2.38,10.56,6.13,20.74,11.13,30.27l109.43-57.34l0,0l0,0  L45.89,70.75c-5.64,8.92-10.24,18.72-13.53,29.28C29.06,110.59,27.26,121.26,26.82,131.81z"/>
<path class="st4" d="M143.86,293.61c13.86,0.58,27.56-0.7,40.78-3.68c13.41-3.02,26.33-7.79,38.43-14.13  c12.1-6.34,23.37-14.25,33.49-23.56c9.98-9.18,18.83-19.71,26.24-31.44l-132.52-83.94l0,0L143.86,293.61z"/>
<path class="st5" d="M52.75,226.75c7.76,8.44,16.67,15.92,26.58,22.19c9.58,6.06,20.1,10.99,31.43,14.53  c11.33,3.54,22.79,5.47,34.11,5.95l5.44-132.54L32.83,198.43C38.19,208.66,44.88,218.19,52.75,226.75z"/>
<g>
	<g>
		<path d="M350.88,128.31c0,14.21-13.13,18.69-22.43,18.69c-17.78,0-24.51-10.39-25.67-20.27h14.29c1.33,4.82,3.91,7.06,11.3,7.06    c5.73,0,8.31-1.83,8.31-4.9c0-3.41-3.49-3.66-13.21-5.73c-9.47-1.99-19.19-5.48-19.19-17.53c0-12.79,11.38-18.94,22.43-18.94    c16.45,0,22.68,9.22,23.68,19.28h-14.29c-0.83-3.41-2.74-6.07-9.39-6.07c-6.31,0-8.23,2.58-8.23,5.07c0,2.74,2.66,3.07,8.39,4.32    C343.15,112.77,350.88,116.42,350.88,128.31z"/>
		<path d="M417.84,87.76v58.16h-14.12v-38.38l-14.54,22.18h-1.33l-14.54-22.18v38.38h-14.12V87.76h16.04l13.29,19.94l13.29-19.94    H417.84z"/>
		<path d="M466.6,133.87h-21.77l-4.15,12.05h-14.96l21.1-58.16h17.78l21.1,58.16h-14.96L466.6,133.87z M461.95,120.41l-6.23-18.11    l-6.23,18.11H461.95z"/>
		<path d="M512.13,125.73h-4.4v20.19H493.6V87.76h25.92c12.3,0,19.94,7.31,19.94,19.44c0,9.31-4.49,14.87-11.63,17.2l15.29,21.52    h-17.28L512.13,125.73z M517.95,101.22h-10.22v12.13h10.22c4.9,0,7.23-1.99,7.23-5.98C525.18,103.3,522.68,101.22,517.95,101.22z"/>
		<path d="M591.39,101.22h-15.87v44.7H561.4v-44.7h-15.79V87.76h45.78V101.22z"/>
	</g>
</g>
<g>
	<path class="st0" d="M619.69,134.24c1.06,0.52,1.6,1.18,1.6,1.99c0,2.65-1.98,5.93-5.94,9.84c-3.96,3.91-7.29,5.86-9.98,5.86   c-3.06,0-4.59-2.21-4.59-6.63c0-2.69,0.17-5.43,0.5-8.23l0.61-4.92l4.26-38.47c1.33-11.72,5.35-21.5,12.07-29.35   c6.72-7.85,14.47-11.77,23.24-11.77c2.14,0,3.94,0.18,5.42,0.55l-7.84,8.01c-1.73-0.59-3.75-0.88-6.07-0.88   c-5.52,0-9.65,1.94-12.39,5.83c-2.74,3.88-4.63,10.47-5.66,19.75l-5.13,46.28c-0.41,3.57-0.61,6.13-0.61,7.68   c0,3.31,0.57,4.97,1.71,4.97c1.36,0,2.95-1.09,4.79-3.27C617.51,139.29,618.85,136.88,619.69,134.24z"/>
	<path class="st0" d="M648.24,134.41c0.99,0.59,1.49,1.16,1.49,1.71c0,1.33-1.6,3.94-4.81,7.85c-4.31,5.31-8.31,7.96-11.99,7.96   c-2.69,0-4.03-1.78-4.03-5.35c0-1.51,0.55-6.15,1.66-13.91l2.16-15.01l0.55-3.81l0.44-3.04c0.18-1.29,0.28-2.37,0.28-3.26   c0-1.84-0.51-2.76-1.54-2.76c-2.86,0-5.94,3.15-9.24,9.45c-0.7-0.63-1.04-1.25-1.04-1.88c0-2.25,2.07-5.27,6.22-9.06   s7.45-5.69,9.92-5.69c2.76,0,4.15,1.91,4.15,5.74c0,0.74-0.15,2.25-0.44,4.53l-0.5,3.7c-0.04,0.29-0.24,1.79-0.61,4.47l-2.27,15.79   l-0.55,3.53c-0.48,3.5-0.72,5.83-0.72,7.01c0,1.58,0.46,2.37,1.38,2.37C641.8,144.75,644.97,141.3,648.24,134.41z M637.18,90.47   l4.64-11.44c4.13-1.69,7.52-4.03,10.17-7.02c0.37,0.52,0.55,1.05,0.55,1.6C652.54,78.55,647.42,84.17,637.18,90.47z"/>
	<path class="st0" d="M666.41,105.45l-4.47,44.68c-0.99,10.13-2.53,17.84-4.61,23.14c-2.08,5.3-5.44,10.07-10.08,14.31   c-6.81,6.22-14.45,9.33-22.92,9.33c-1.69,0-3.87-0.46-6.52-1.37l7.35-6.7c3.13,1.03,5.97,1.55,8.51,1.55   c10.87,0,17.15-8.24,18.85-24.71l1.44-13.71l4.59-46.54h-9.96l6.29-6.41h4.36l0.32-3.21c1.33-13.63,5.25-24.25,11.78-31.86   c6.52-7.61,14.95-11.41,25.27-11.41c1.95,0,4.15,0.18,6.58,0.55l-7.74,7.58c-2.76-1.07-5.47-1.6-8.12-1.6   c-6.34,0-10.85,2.2-13.54,6.59c-2.69,4.39-4.64,12.8-5.86,25.24l-0.82,8.14h22.37l-6.58,6.41H666.41z"/>
	<path class="st0" d="M711.84,132.92c0.92,0.63,1.38,1.36,1.38,2.21c0,1.14-1.18,3.09-3.54,5.86c-6.3,7.29-12.53,10.94-18.68,10.94   c-3.76,0-6.85-1.49-9.28-4.48c-2.43-2.98-3.65-6.8-3.65-11.44c0-8.4,3.18-16.9,9.53-25.51c6.36-8.6,12.65-12.9,18.87-12.9   c4.49,0,6.74,2.41,6.74,7.24c0,5.42-2.63,10.7-7.88,15.86c-5.25,5.16-11.65,8.75-19.21,10.78c0.74,8.84,4.24,13.26,10.5,13.26   C702.83,144.75,707.89,140.8,711.84,132.92z M686.36,124.74c1.07,0.37,2.04,0.55,2.93,0.55c4.57,0,8.57-1.4,11.99-4.2   c3.43-2.8,5.14-6.08,5.14-9.84c0-4.31-2.19-6.47-6.58-6.47c-3.17,0-6.03,1.89-8.59,5.67C688.69,114.23,687.06,118.99,686.36,124.74   z"/>
</g>
<g>
	<g>
		<path d="M354.7,201c0,10.97-8.23,17.03-19.86,17.03h-26.25v-58.16h26.25c10.14,0,17.86,4.98,17.86,15.29    c0,5.65-2.41,9.06-6.81,11.38C351.87,188.71,354.7,194.44,354.7,201z M332.93,173.34h-10.22v8.72h10.8c3.16,0,4.9-1.33,4.9-4.4    C338.41,174.09,336.34,173.34,332.93,173.34z M340.41,199.76c0-3.24-1.16-4.82-5.9-4.82h-11.8v9.64h11.8    C339.24,204.58,340.41,202.75,340.41,199.76z"/>
		<path d="M398.9,205.99h-21.77l-4.15,12.05h-14.96l21.1-58.16h17.78l21.1,58.16h-14.96L398.9,205.99z M394.24,192.53l-6.23-18.11    l-6.23,18.11H394.24z"/>
		<path d="M463.62,204.58v13.46h-37.72v-58.16h14.12v44.7H463.62z"/>
		<path d="M508.64,205.99h-21.77l-4.15,12.05h-14.96l21.1-58.16h17.78l21.1,58.16H512.8L508.64,205.99z M503.99,192.53l-6.23-18.11    l-6.23,18.11H503.99z"/>
		<path d="M586.07,159.88v58.16h-16.04l-21.85-36.64l1.16,12.3v24.34h-14.12v-58.16h16.04l21.77,36.64l-1.08-12.3v-24.34H586.07z"/>
		<path d="M595.21,188.96c0-17.12,12.71-30.16,30.16-30.16c14.29,0,25.17,8.97,28.33,21.6h-15.12c-2.33-5.07-7.06-8.14-13.21-8.14    c-9.64,0-15.87,6.98-15.87,16.7s6.23,16.7,15.87,16.7c6.15,0,10.88-3.07,13.21-8.14h15.12c-3.16,12.63-14.04,21.6-28.33,21.6    C607.92,219.12,595.21,206.07,595.21,188.96z"/>
		<path d="M676.55,173.34v8.64h23.6v13.46h-23.6v9.14h25.92v13.46h-40.05v-58.16h40.05v13.46H676.55z"/>
	</g>
</g>
<g id="XMLID_00000172402099227927441830000017801539297080718497_">
	
		<radialGradient id="XMLID_00000144318302147253221990000015324106871331292573_" cx="143.8551" cy="173.6168" r="87.9972" gradientUnits="userSpaceOnUse">
		<stop offset="0" style="stop-color:#000000"/>
		<stop offset="1" style="stop-color:#FFFFFF"/>
	</radialGradient>
	
		<path id="XMLID_00000149357162248993624740000009479614875846558379_" style="fill:url(#XMLID_00000144318302147253221990000015324106871331292573_);" d="   M207.78,70.81c-0.24,6.68-0.53,13.61-3.57,19.57c-4.1,8.05-12.56,13-21.18,15.71c-8.61,2.71-17.69,3.62-26.39,6.04   c-5.07,1.41-10.57,4.04-12.79,8.53c-2.22-4.49-7.72-7.12-12.79-8.53c-8.7-2.43-17.78-3.33-26.39-6.04   c-8.61-2.71-17.08-7.66-21.18-15.71c-3.03-5.96-3.33-12.89-3.57-19.57c-7.64,10.87-7.57,21.54-3.35,32.6   c4.22,11.07,10.75,18.48,20.66,24.96c4.33,2.83,15.12,7.49,18.34,11.54c15.03,18.96-7.48,105.19-11.19,121.02   c-1.15,4.93-2.29,10.17-0.62,14.95c1.68,4.77,14.89-23.76,16.13-26.35c8.74-18.18,16.31-36.92,22.67-56.07   c0.44-1.33,0.87-2.66,1.28-4c0.41,1.34,0.84,2.67,1.28,4c6.35,19.15,13.93,37.88,22.67,56.07c1.24,2.59,14.45,31.12,16.13,26.35   c1.68-4.77,0.53-10.02-0.62-14.95c-3.71-15.82-26.22-102.06-11.19-121.02c3.21-4.05,14.01-8.71,18.34-11.54   c9.92-6.48,16.44-13.89,20.66-24.96C215.35,92.35,215.42,81.68,207.78,70.81z"/>
	
		<radialGradient id="XMLID_00000059277963097905421620000002408342413716615811_" cx="143.8551" cy="82.2185" r="22.1878" gradientUnits="userSpaceOnUse">
		<stop offset="0" style="stop-color:#000000"/>
		<stop offset="1" style="stop-color:#FFFFFF"/>
	</radialGradient>
	
		<circle id="XMLID_00000023239422275986861930000016780579299249031340_" style="fill:url(#XMLID_00000059277963097905421620000002408342413716615811_);" cx="143.86" cy="82.22" r="22.19"/>
</g>
<g id="XMLID_00000057144681498629799350000006081941965768707720_">
	<path id="XMLID_00000059275495181205287280000012198592817319497891_" class="st8" d="M197.83,75.85   c-0.2,5.64-0.45,11.49-3.01,16.52c-3.46,6.79-10.61,10.98-17.88,13.27c-7.27,2.29-14.94,3.05-22.28,5.1   c-4.28,1.19-8.93,3.41-10.8,7.2c-1.87-3.79-6.52-6.01-10.8-7.2c-7.34-2.05-15.01-2.81-22.28-5.1c-7.27-2.29-14.42-6.47-17.88-13.27   c-2.56-5.03-2.81-10.88-3.01-16.52c-6.45,9.18-6.39,18.19-2.83,27.53c3.57,9.34,9.07,15.6,17.45,21.07   c3.66,2.39,12.77,6.32,15.48,9.74c12.69,16.01-6.32,88.82-9.45,102.18c-0.97,4.16-1.94,8.59-0.52,12.62   c1.41,4.03,12.57-20.06,13.62-22.25c7.38-15.35,13.78-31.18,19.14-47.34c0.37-1.12,0.73-2.25,1.08-3.37   c0.35,1.13,0.71,2.25,1.08,3.37c5.37,16.17,11.76,31.99,19.14,47.34c1.05,2.18,12.2,26.28,13.62,22.25   c1.41-4.03,0.45-8.46-0.52-12.62c-3.13-13.36-22.14-86.17-9.45-102.18c2.71-3.42,11.83-7.35,15.48-9.74   c8.37-5.47,13.88-11.73,17.45-21.07C204.22,94.04,204.28,85.03,197.83,75.85z"/>
	
		<ellipse id="XMLID_00000079448035748027915090000007546683230591334822_" transform="matrix(0.9735 -0.2288 0.2288 0.9735 -15.742 35.179)" class="st8" cx="143.86" cy="85.48" rx="18.73" ry="18.73"/>
</g>
</svg>